<svg width="67" height="27" viewBox="0 0 67 27" fill="none" xmlns="http://www.w3.org/2000/svg">
<path d="M10.968 4.864C10.328 4.864 9.44 4.76 8.304 4.552C6.704 5.768 5.224 6.376 3.864 6.376C3.816 6.376 3.768 6.376 3.72 6.376C2.744 6.36 1.976 6.104 1.416 5.608C0.872 5.096 0.6 4.424 0.6 3.592C0.6 2.744 0.872 2.056 1.416 1.528C1.976 0.999999 2.8 0.735999 3.888 0.735999C4.608 0.735999 5.76 0.975999 7.344 1.456C9.008 1.952 10.248 2.2 11.064 2.2C12.408 2.2 13.296 1.72 13.728 0.759999L14.664 1.408C14.312 3.712 13.08 4.864 10.968 4.864ZM2.976 4.312C2.976 4.712 3.32 4.912 4.008 4.912C4.696 4.912 5.536 4.656 6.528 4.144C5.12 3.792 4.152 3.616 3.624 3.616C3.448 3.616 3.296 3.688 3.168 3.832C3.04 3.96 2.976 4.12 2.976 4.312ZM9.528 6.088L9.144 8.656H12.72C12.864 8.992 12.936 9.32 12.936 9.64C12.936 9.96 12.784 10.232 12.48 10.456C12.176 10.664 11.792 10.768 11.328 10.768H8.808L8.784 10.984C10.8 11.944 11.808 13.368 11.808 15.256C11.808 16.68 11.432 17.688 10.68 18.28C9.928 18.856 9.04 19.144 8.016 19.144C6.992 19.144 6.2 18.888 5.64 18.376C5.08 17.848 4.8 17.152 4.8 16.288C4.8 16.144 4.816 15.96 4.848 15.736L5.496 10.768H3.24C3.336 9.856 3.416 9.152 3.48 8.656H5.784L6.048 6.544C6.88 6.144 7.576 5.944 8.136 5.944C8.696 5.944 9.16 5.992 9.528 6.088ZM8.76 16.96C9.144 16.96 9.48 16.824 9.768 16.552C10.056 16.264 10.2 15.816 10.2 15.208C10.2 14.008 9.656 13.088 8.568 12.448C8.312 14.224 8.176 15.336 8.16 15.784C8.16 16.216 8.216 16.52 8.328 16.696C8.456 16.872 8.6 16.96 8.76 16.96ZM17.3439 19.168C16.3679 19.168 15.5999 18.896 15.0399 18.352C14.4799 17.792 14.1999 17.032 14.1999 16.072C14.1999 15.816 14.6319 12.016 15.4959 4.672C15.7199 2.784 16.3199 1.592 17.2959 1.096C17.7439 0.855999 18.2799 0.735999 18.9039 0.735999C21.0159 0.735999 22.0719 1.712 22.0719 3.664C22.0719 3.824 22.0639 3.992 22.0479 4.168C21.8879 6.312 20.5439 8.496 18.0159 10.72C17.9359 11.504 17.8479 12.264 17.7519 13C17.5599 14.648 17.4639 15.56 17.4639 15.736C17.4639 16.568 17.8239 16.984 18.5439 16.984C19.3279 16.984 20.0559 16.536 20.7279 15.64C21.4159 14.728 21.9439 13.568 22.3119 12.16C22.4559 12.208 22.6559 12.344 22.9119 12.568C23.1679 12.776 23.3439 12.96 23.4399 13.12C23.1839 14.448 22.6079 15.72 21.7119 16.936C21.2639 17.56 20.6959 18.072 20.0079 18.472C19.2239 18.936 18.3359 19.168 17.3439 19.168ZM18.2799 8.32C19.7519 6.704 20.4879 5.256 20.4879 3.976C20.4879 3.208 20.1999 2.824 19.6239 2.824C19.2559 2.856 19.0079 3.096 18.8799 3.544C18.7679 3.992 18.6559 4.72 18.5439 5.728C18.4479 6.736 18.3839 7.36 18.3519 7.6L18.2799 8.32ZM32.1679 7.696C31.5119 12.88 31.1839 15.64 31.1839 15.976C31.1839 16.616 31.4159 16.936 31.8799 16.936C32.2959 16.936 32.7439 16.656 33.2239 16.096C33.7199 15.52 34.1119 14.664 34.3999 13.528C34.9279 14.104 35.2479 14.552 35.3599 14.872C34.9919 16.424 34.4079 17.52 33.6079 18.16C32.8079 18.8 31.9839 19.12 31.1359 19.12C29.7439 19.12 28.8079 18.584 28.3279 17.512C27.4959 18.584 26.3839 19.12 24.9919 19.12C23.8399 19.12 22.9519 18.832 22.3279 18.256C21.7039 17.68 21.3919 16.928 21.3919 16C21.3919 15.776 21.4319 15.384 21.5119 14.824C21.8799 11.848 22.1599 9.48 22.3519 7.72C22.8479 7.544 23.3039 7.456 23.7199 7.456C24.1359 7.456 24.4479 7.472 24.6559 7.504C24.8639 7.536 25.0639 7.656 25.2559 7.864C25.4479 8.072 25.5439 8.368 25.5439 8.752L24.7519 14.872C24.7199 15.064 24.7039 15.24 24.7039 15.4C24.7039 16.344 25.1359 16.816 25.9999 16.816C26.7999 16.816 27.4639 16.424 27.9919 15.64C27.9919 15.464 28.0079 15.184 28.0399 14.8L28.8319 8.416C28.9439 8.144 29.1839 7.92 29.5519 7.744C29.9199 7.552 30.3759 7.456 30.9199 7.456C31.4799 7.456 31.8959 7.536 32.1679 7.696ZM40.1079 19.024C40.9879 20.576 41.4279 21.856 41.4279 22.864C41.4279 23.888 41.1159 24.712 40.4919 25.336C39.8839 25.976 39.0839 26.296 38.0919 26.296C37.0999 26.296 36.2839 26.016 35.6439 25.456C35.0199 24.912 34.7079 24.152 34.7079 23.176C34.7079 22.984 34.7399 22.6 34.8039 22.024L35.5479 15.544C34.6039 14.28 33.8279 13.272 33.2199 12.52C33.7639 11.768 34.2199 11.392 34.5879 11.392C34.7639 11.392 34.9239 11.48 35.0679 11.656C35.2279 11.832 35.4919 12.16 35.8599 12.64L36.7719 4.576C36.8999 3.52 37.1559 2.664 37.5399 2.008C38.0519 1.16 38.9959 0.735999 40.3719 0.735999C41.3479 0.735999 42.0919 1.008 42.6039 1.552C43.1159 2.08 43.3719 2.816 43.3719 3.76C43.3719 5.024 42.9559 6.272 42.1239 7.504C41.3079 8.736 40.3559 9.816 39.2679 10.744L38.6679 16.528C38.9399 16.832 39.3239 16.984 39.8199 16.984C40.8119 16.984 41.6359 16.568 42.2919 15.736C42.9639 14.888 43.5479 13.696 44.0439 12.16C44.2679 12.288 44.4999 12.456 44.7399 12.664C44.9959 12.856 45.1399 12.992 45.1719 13.072C44.8039 14.848 44.1639 16.224 43.2519 17.2C42.3399 18.176 41.2919 18.784 40.1079 19.024ZM41.2359 2.824C41.1559 2.808 41.0759 2.8 40.9959 2.8C40.5639 2.8 40.2759 3.08 40.1319 3.64C39.9879 4.2 39.8119 5.488 39.6039 7.504L39.5079 8.416C40.1959 7.712 40.7479 6.968 41.1639 6.184C41.5959 5.384 41.8119 4.664 41.8119 4.024C41.8119 3.368 41.6199 2.968 41.2359 2.824ZM38.0199 22.648C38.0039 22.728 37.9959 22.896 37.9959 23.152C37.9959 23.424 38.0759 23.648 38.2359 23.824C38.3959 24 38.6039 24.088 38.8599 24.088C39.1319 24.088 39.3719 23.976 39.5799 23.752C39.7879 23.544 39.8919 23.216 39.8919 22.768C39.8919 21.92 39.3879 20.76 38.3799 19.288L38.0199 22.648ZM49.7876 19.024C50.6676 20.576 51.1076 21.856 51.1076 22.864C51.1076 23.888 50.7956 24.712 50.1716 25.336C49.5636 25.976 48.7636 26.296 47.7716 26.296C46.7796 26.296 45.9636 26.016 45.3236 25.456C44.6996 24.912 44.3876 24.152 44.3876 23.176C44.3876 22.984 44.4196 22.6 44.4836 22.024L45.2276 15.544C44.2836 14.28 43.5076 13.272 42.8996 12.52C43.4436 11.768 43.8996 11.392 44.2676 11.392C44.4436 11.392 44.6036 11.48 44.7476 11.656C44.9076 11.832 45.1716 12.16 45.5396 12.64L46.4516 4.576C46.5796 3.52 46.8356 2.664 47.2196 2.008C47.7316 1.16 48.6756 0.735999 50.0516 0.735999C51.0276 0.735999 51.7716 1.008 52.2836 1.552C52.7956 2.08 53.0516 2.816 53.0516 3.76C53.0516 5.024 52.6356 6.272 51.8036 7.504C50.9876 8.736 50.0356 9.816 48.9476 10.744L48.3476 16.528C48.6196 16.832 49.0036 16.984 49.4996 16.984C50.4916 16.984 51.3156 16.568 51.9716 15.736C52.6436 14.888 53.2276 13.696 53.7236 12.16C53.9476 12.288 54.1796 12.456 54.4196 12.664C54.6756 12.856 54.8196 12.992 54.8516 13.072C54.4836 14.848 53.8436 16.224 52.9316 17.2C52.0196 18.176 50.9716 18.784 49.7876 19.024ZM50.9156 2.824C50.8356 2.808 50.7556 2.8 50.6756 2.8C50.2436 2.8 49.9556 3.08 49.8116 3.64C49.6676 4.2 49.4916 5.488 49.2836 7.504L49.1876 8.416C49.8756 7.712 50.4276 6.968 50.8436 6.184C51.2756 5.384 51.4916 4.664 51.4916 4.024C51.4916 3.368 51.2996 2.968 50.9156 2.824ZM47.6996 22.648C47.6836 22.728 47.6756 22.896 47.6756 23.152C47.6756 23.424 47.7556 23.648 47.9156 23.824C48.0756 24 48.2836 24.088 48.5396 24.088C48.8116 24.088 49.0516 23.976 49.2596 23.752C49.4676 23.544 49.5716 23.216 49.5716 22.768C49.5716 21.92 49.0676 20.76 48.0596 19.288L47.6996 22.648ZM57.4513 13.624C58.4433 13.416 59.1793 13.016 59.6593 12.424C60.1553 11.832 60.4033 11.264 60.4033 10.72C60.4033 10.16 60.2513 9.784 59.9473 9.592C59.6593 9.384 59.3393 9.28 58.9873 9.28C58.2353 9.28 57.5713 9.704 56.9953 10.552C56.4353 11.384 56.1553 12.384 56.1553 13.552C56.1553 14.704 56.4273 15.568 56.9713 16.144C57.5313 16.704 58.2193 16.984 59.0353 16.984C60.2353 16.984 61.3873 16.568 62.4913 15.736C63.5953 14.904 64.4913 13.816 65.1793 12.472C65.5313 12.808 65.8513 13.224 66.1393 13.72C65.6113 14.92 64.6753 16.096 63.3313 17.248C62.6593 17.808 61.8593 18.264 60.9313 18.616C60.0193 18.968 59.0753 19.144 58.0993 19.144C56.4993 19.144 55.2353 18.656 54.3073 17.68C53.3153 16.624 52.8193 15.272 52.8193 13.624C52.8193 11.976 53.4353 10.536 54.6673 9.304C55.9153 8.072 57.4033 7.456 59.1313 7.456C60.3633 7.456 61.3633 7.728 62.1313 8.272C62.8993 8.8 63.2913 9.52 63.3073 10.432C63.3073 11.664 62.8113 12.664 61.8193 13.432C60.8433 14.2 59.4993 14.736 57.7873 15.04L57.4513 13.624Z" fill="black"/>
</svg>
